# xmcd
# 
# Track frame offsets:
#   150
#   16235
#   32985
#   46500
#   65483
#   82383
#   96955
# 
# Disc length: 1520 seconds
# 
# Revision: 1
# Processed by: cddbd v1.5.2PL0 Copyright (c) Steve Scherf et al.
# Submitted via: Synapstar 1.0 
# 
DISCID=5505ee07
DTITLE=Various Artist - New Karaoke 2-16-09
DYEAR=1900
DGENRE=Country
TTITLE0=Dierks Bentley - Feel That Fire
TTITLE1=Rehab - Sittin' At A Bar (Bartender Song)
TTITLE2=Clint Black - Good Run Of Bad Luck
TTITLE3=Trapt - Head Strong
TTITLE4=Linkin Park - What I've Done
TTITLE5=Taproot - Poem
TTITLE6=Finch - What It Is To Burn
EXTD=
EXTT0=
EXTT1=
EXTT2=
EXTT3=
EXTT4=
EXTT5=
EXTT6=
PLAYORDER=
